<svg width="69" height="69" viewBox="0 0 69 69" fill="none" xmlns="http://www.w3.org/2000/svg">
<path d="M24.0484 54.0983C22.4072 53.6799 20.7794 53.0543 19.1914 52.201L11.1845 56.8785L6.41956 52.1135L10.7485 44.0258C9.90835 42.5498 9.249 40.9781 8.7847 39.3444L0 36.9581V30.2077L8.7378 27.6413C9.1863 26.0123 9.82805 24.4291 10.6649 22.9315L6.22092 14.9862L10.9861 10.2213L18.9949 14.7201C20.5228 13.8791 22.0897 13.2488 23.6702 12.8141L26.1414 3.80176H32.8918L35.4349 13.003C36.9187 13.4578 38.3499 14.0695 39.704 14.8277L48.1133 10.0227L52.8784 14.7877L48.0976 23.277C49.3241 25.5316 50.1595 28.0561 50.4878 30.7861H42.055C40.3575 22.3797 30.6502 17.6059 22.7794 22.1435C14.1229 27.134 14.1229 39.6781 22.7794 44.6686C25.1463 46.0331 27.6792 46.5544 30.1107 46.3892V57.1005H24.9128L24.0483 54.0983H24.0484ZM67.5577 59.9458H27.3642C27.3642 63.1083 29.9436 65.1983 33.1061 65.1983H61.8156C64.9782 65.1983 67.5576 63.1083 67.5576 59.9458M58.9447 50.6148C59.1833 54.0117 56.7464 56.2217 53.9205 56.2217H38.13C35.3714 56.2217 33.106 54.0913 33.106 51.3325V34.8244C33.106 34.0393 33.7564 33.3889 34.5415 33.3889H60.3801C72.2815 33.9866 71.9104 51.3622 58.9447 50.6148ZM58.9447 37.6953V46.3083C67.1641 47.0158 66.0655 36.5529 58.9447 37.6955V37.6953Z" fill="white"/>
</svg>
