<svg width="28" height="28" viewBox="0 0 28 28" fill="none" xmlns="http://www.w3.org/2000/svg">
<path d="M0.380611 25.7989L9.29857 16.881C7.91469 15.0919 7.16609 12.9045 7.16609 10.6037C7.16609 7.8497 8.24092 5.26737 10.1845 3.32032C12.1281 1.37327 14.7173 0.30188 17.4679 0.30188C20.2185 0.30188 22.8077 1.37671 24.7513 3.32032C26.6984 5.26393 27.7698 7.8497 27.7698 10.6037C27.7698 13.3543 26.695 15.9435 24.7513 17.8871C22.8077 19.8342 20.222 20.9056 17.4679 20.9056C15.1672 20.9056 12.9832 20.157 11.1941 18.7765L2.27615 27.691C2.25 27.7172 2.21895 27.738 2.18478 27.7521C2.1506 27.7663 2.11397 27.7736 2.07698 27.7736C2.03999 27.7736 2.00336 27.7663 1.96918 27.7521C1.93501 27.738 1.90396 27.7172 1.87781 27.691L0.380611 26.1973C0.354446 26.1711 0.333689 26.1401 0.319529 26.1059C0.305367 26.0717 0.298077 26.0351 0.298077 25.9981C0.298077 25.9611 0.305367 25.9245 0.319529 25.8903C0.333689 25.8561 0.354446 25.8251 0.380611 25.7989ZM12.0286 16.0431C13.4846 17.4957 15.4144 18.2958 17.4679 18.2958C19.5214 18.2958 21.4513 17.4957 22.9073 16.0431C24.3599 14.5871 25.16 12.6572 25.16 10.6037C25.16 8.55022 24.3599 6.61691 22.9073 5.16435C21.4513 3.71179 19.5214 2.91168 17.4679 2.91168C15.4144 2.91168 13.4811 3.70836 12.0286 5.16435C10.576 6.62034 9.77589 8.55022 9.77589 10.6037C9.77589 12.6572 10.576 14.5905 12.0286 16.0431Z" fill="#5D1300"/>
</svg>
