<svg width="69" height="69" viewBox="0 0 69 69" fill="none" xmlns="http://www.w3.org/2000/svg">
<path d="M69 34.5C69 51.1721 53.5526 64.6875 34.5 64.6875C31.083 64.6921 27.6802 64.2484 24.3786 63.3679C21.8601 64.6444 16.077 67.0939 6.348 68.6895C5.4855 68.8275 4.83 67.9305 5.17069 67.1284C6.69731 63.5231 8.07731 58.719 8.49131 54.3375C3.2085 49.0331 0 42.09 0 34.5C0 17.8279 15.4474 4.3125 34.5 4.3125C53.5526 4.3125 69 17.8279 69 34.5ZM21.5625 34.5C21.5625 33.3563 21.1081 32.2594 20.2994 31.4506C19.4906 30.6419 18.3937 30.1875 17.25 30.1875C16.1063 30.1875 15.0094 30.6419 14.2006 31.4506C13.3919 32.2594 12.9375 33.3563 12.9375 34.5C12.9375 35.6437 13.3919 36.7406 14.2006 37.5494C15.0094 38.3581 16.1063 38.8125 17.25 38.8125C18.3937 38.8125 19.4906 38.3581 20.2994 37.5494C21.1081 36.7406 21.5625 35.6437 21.5625 34.5V34.5ZM38.8125 34.5C38.8125 33.3563 38.3581 32.2594 37.5494 31.4506C36.7406 30.6419 35.6437 30.1875 34.5 30.1875C33.3563 30.1875 32.2594 30.6419 31.4506 31.4506C30.6419 32.2594 30.1875 33.3563 30.1875 34.5C30.1875 35.6437 30.6419 36.7406 31.4506 37.5494C32.2594 38.3581 33.3563 38.8125 34.5 38.8125C35.6437 38.8125 36.7406 38.3581 37.5494 37.5494C38.3581 36.7406 38.8125 35.6437 38.8125 34.5V34.5ZM51.75 38.8125C52.8937 38.8125 53.9906 38.3581 54.7994 37.5494C55.6081 36.7406 56.0625 35.6437 56.0625 34.5C56.0625 33.3563 55.6081 32.2594 54.7994 31.4506C53.9906 30.6419 52.8937 30.1875 51.75 30.1875C50.6063 30.1875 49.5094 30.6419 48.7006 31.4506C47.8919 32.2594 47.4375 33.3563 47.4375 34.5C47.4375 35.6437 47.8919 36.7406 48.7006 37.5494C49.5094 38.3581 50.6063 38.8125 51.75 38.8125V38.8125Z" fill="white"/>
</svg>
