<svg width="71" height="71" viewBox="0 0 71 71" fill="none" xmlns="http://www.w3.org/2000/svg">
<g clip-path="url(#clip0_144_188)">
<path d="M23.6667 31.8317H21.9509C19.6094 31.7471 17.2754 32.1446 15.094 32.9995C12.9125 33.8545 10.93 35.1487 9.26948 36.8017L8.79614 37.3539V53.6839H16.8428V44.4145L17.9275 43.1917L18.4206 42.6198C20.9883 39.9819 24.185 38.0408 27.7098 36.9792C25.945 35.6364 24.5532 33.8644 23.6667 31.8317Z" fill="white"/>
<path d="M61.8095 36.7425C60.149 35.0894 58.1665 33.7953 55.985 32.9403C53.8035 32.0854 51.4696 31.6879 49.1281 31.7725C48.41 31.7745 47.6924 31.814 46.9784 31.8908C46.0753 33.7978 44.7215 35.4562 43.0339 36.7228C46.7969 37.7638 50.2057 39.8091 52.895 42.6395L53.3881 43.1917L54.4531 44.4145V53.7036H62.2237V37.2947L61.8095 36.7425Z" fill="white"/>
<path d="M21.8917 27.9858H22.5031C22.2191 25.5466 22.647 23.0774 23.7354 20.8761C24.8238 18.6748 26.5261 16.8356 28.6367 15.5805C27.8716 14.4117 26.8161 13.4616 25.5735 12.8232C24.3309 12.1849 22.9438 11.8802 21.5481 11.939C20.1523 11.9979 18.7958 12.4181 17.6113 13.1588C16.4268 13.8994 15.4549 14.9349 14.7909 16.164C14.1268 17.393 13.7934 18.7735 13.8231 20.1702C13.8529 21.5668 14.2449 22.9318 14.9607 24.1315C15.6765 25.3311 16.6916 26.3243 17.9066 27.0138C19.1215 27.7033 20.4948 28.0654 21.8917 28.0647V27.9858Z" fill="white"/>
<path d="M48.1813 26.5066C48.2052 26.9599 48.2052 27.4142 48.1813 27.8675C48.5598 27.9275 48.942 27.9604 49.3252 27.9661H49.6999C51.0907 27.8919 52.4387 27.4589 53.6125 26.7091C54.7863 25.9594 55.746 24.9185 56.3981 23.6878C57.0502 22.457 57.3725 21.0784 57.3336 19.6861C57.2948 18.2939 56.8961 16.9354 56.1764 15.7429C55.4567 14.5505 54.4405 13.5647 53.2267 12.8816C52.0129 12.1984 50.6429 11.8412 49.2501 11.8448C47.8573 11.8483 46.4891 12.2123 45.2788 12.9016C44.0685 13.5908 43.0572 14.5817 42.3435 15.7777C44.1285 16.9432 45.5963 18.5335 46.6152 20.4061C47.6341 22.2786 48.1722 24.3748 48.1813 26.5066Z" fill="white"/>
<path d="M35.2436 35.3422C40.1124 35.3422 44.0594 31.3953 44.0594 26.5264C44.0594 21.6576 40.1124 17.7106 35.2436 17.7106C30.3747 17.7106 26.4277 21.6576 26.4277 26.5264C26.4277 31.3953 30.3747 35.3422 35.2436 35.3422Z" fill="white"/>
<path d="M35.717 40.0361C33.1413 39.9321 30.5713 40.3503 28.1615 41.2654C25.7516 42.1805 23.5519 43.5737 21.6945 45.3611L21.2014 45.9133V58.3975C21.2091 58.8041 21.2968 59.2053 21.4596 59.578C21.6224 59.9508 21.857 60.2878 22.15 60.5698C22.443 60.8519 22.7888 61.0734 23.1674 61.2218C23.5461 61.3702 23.9503 61.4426 24.357 61.4347H47.0178C47.4244 61.4426 47.8287 61.3702 48.2073 61.2218C48.586 61.0734 48.9317 60.8519 49.2248 60.5698C49.5178 60.2878 49.7524 59.9508 49.9152 59.578C50.0779 59.2053 50.1657 58.8041 50.1734 58.3975V45.9528L49.7 45.3611C47.8547 43.5682 45.6626 42.1711 43.2581 41.2554C40.8536 40.3398 38.2875 39.9248 35.717 40.0361Z" fill="white"/>
</g>
<defs>
<clipPath id="clip0_144_188">
<rect width="71" height="71" rx="10" fill="white"/>
</clipPath>
</defs>
</svg>
