<svg width="98" height="88" viewBox="0 0 98 88" fill="none" xmlns="http://www.w3.org/2000/svg">
<path d="M49 0C75.95 0 98 17.5022 98 39.1111C98 60.72 75.95 78.2222 49 78.2222C42.924 78.2222 37.093 77.3422 31.703 75.7778C17.395 88 0 88 0 88C11.417 76.6089 13.23 68.9333 13.475 66C5.145 59.0089 0 49.5244 0 39.1111C0 17.5022 22.05 0 49 0Z" fill="#FDFFFF"/>
<path d="M13.4366 47.135V31.745H20.0866V34.044H16.8376V37.92H19.6686V40.295H16.8376V47.135H13.4366ZM25.1139 47.325C24.3286 47.325 23.6446 47.192 23.0619 46.926C22.4919 46.66 22.0486 46.261 21.7319 45.729C21.4279 45.197 21.2759 44.532 21.2759 43.734V39.554C21.2759 38.756 21.4279 38.091 21.7319 37.559C22.0486 37.027 22.4919 36.628 23.0619 36.362C23.6446 36.096 24.3286 35.963 25.1139 35.963C25.8992 35.963 26.5769 36.096 27.1469 36.362C27.7296 36.628 28.1792 37.027 28.4959 37.559C28.8126 38.091 28.9709 38.756 28.9709 39.554V43.734C28.9709 44.532 28.8126 45.197 28.4959 45.729C28.1792 46.261 27.7296 46.66 27.1469 46.926C26.5769 47.192 25.8992 47.325 25.1139 47.325ZM25.1329 45.273C25.3356 45.273 25.4939 45.2223 25.6079 45.121C25.7219 45.007 25.7979 44.855 25.8359 44.665C25.8866 44.4623 25.9119 44.2217 25.9119 43.943V39.345C25.9119 39.0663 25.8866 38.832 25.8359 38.642C25.7979 38.4393 25.7219 38.2873 25.6079 38.186C25.4939 38.072 25.3356 38.015 25.1329 38.015C24.9302 38.015 24.7719 38.072 24.6579 38.186C24.5439 38.2873 24.4616 38.4393 24.4109 38.642C24.3602 38.832 24.3349 39.0663 24.3349 39.345V43.943C24.3349 44.2217 24.3602 44.4623 24.4109 44.665C24.4616 44.855 24.5439 45.007 24.6579 45.121C24.7719 45.2223 24.9302 45.273 25.1329 45.273ZM31.0875 47.135V38.243H30.0425V36.153H31.0875V35.336C31.0875 34.69 31.1508 34.1263 31.2775 33.645C31.4168 33.1637 31.6955 32.79 32.1135 32.524C32.5441 32.258 33.2028 32.125 34.0895 32.125C34.3301 32.125 34.5645 32.1313 34.7925 32.144C35.0331 32.1567 35.2928 32.182 35.5715 32.22V34.519C35.4828 34.4937 35.3751 34.4747 35.2485 34.462C35.1345 34.4367 35.0205 34.424 34.9065 34.424C34.6785 34.424 34.5011 34.4937 34.3745 34.633C34.2478 34.7597 34.1845 34.975 34.1845 35.279V36.153H35.5715V38.243H34.1845V47.135H31.0875ZM40.3844 47.325C39.5991 47.325 38.9151 47.192 38.3324 46.926C37.7624 46.66 37.3191 46.261 37.0024 45.729C36.6984 45.197 36.5464 44.532 36.5464 43.734V39.554C36.5464 38.756 36.6984 38.091 37.0024 37.559C37.3191 37.027 37.7624 36.628 38.3324 36.362C38.9151 36.096 39.5991 35.963 40.3844 35.963C41.1698 35.963 41.8474 36.096 42.4174 36.362C43.0001 36.628 43.4498 37.027 43.7664 37.559C44.0831 38.091 44.2414 38.756 44.2414 39.554V43.734C44.2414 44.532 44.0831 45.197 43.7664 45.729C43.4498 46.261 43.0001 46.66 42.4174 46.926C41.8474 47.192 41.1698 47.325 40.3844 47.325ZM40.4034 45.273C40.6061 45.273 40.7644 45.2223 40.8784 45.121C40.9924 45.007 41.0684 44.855 41.1064 44.665C41.1571 44.4623 41.1824 44.2217 41.1824 43.943V39.345C41.1824 39.0663 41.1571 38.832 41.1064 38.642C41.0684 38.4393 40.9924 38.2873 40.8784 38.186C40.7644 38.072 40.6061 38.015 40.4034 38.015C40.2008 38.015 40.0424 38.072 39.9284 38.186C39.8144 38.2873 39.7321 38.4393 39.6814 38.642C39.6308 38.832 39.6054 39.0663 39.6054 39.345V43.943C39.6054 44.2217 39.6308 44.4623 39.6814 44.665C39.7321 44.855 39.8144 45.007 39.9284 45.121C40.0424 45.2223 40.2008 45.273 40.4034 45.273ZM49.531 47.325C48.733 47.325 48.049 47.1793 47.479 46.888C46.9217 46.5967 46.491 46.1787 46.187 45.634C45.883 45.0893 45.731 44.4307 45.731 43.658V39.63C45.731 38.8447 45.883 38.1797 46.187 37.635C46.491 37.0903 46.9217 36.6787 47.479 36.4C48.049 36.1087 48.733 35.963 49.531 35.963C50.3163 35.963 50.9813 36.0833 51.526 36.324C52.0833 36.5647 52.5077 36.932 52.799 37.426C53.0903 37.9073 53.236 38.5217 53.236 39.269V40.428H50.253V39.174C50.253 38.8827 50.2213 38.661 50.158 38.509C50.1073 38.3443 50.025 38.2303 49.911 38.167C49.8097 38.1037 49.683 38.072 49.531 38.072C49.379 38.072 49.2523 38.1163 49.151 38.205C49.0497 38.281 48.9737 38.414 48.923 38.604C48.8723 38.7813 48.847 39.0347 48.847 39.364V43.924C48.847 44.418 48.904 44.7537 49.018 44.931C49.1447 45.1083 49.322 45.197 49.55 45.197C49.7147 45.197 49.8477 45.1653 49.949 45.102C50.0503 45.026 50.1263 44.912 50.177 44.76C50.2277 44.5953 50.253 44.38 50.253 44.114V42.651H53.236V43.981C53.236 44.7157 53.084 45.3363 52.78 45.843C52.4887 46.337 52.0643 46.7107 51.507 46.964C50.9623 47.2047 50.3037 47.325 49.531 47.325ZM57.1077 47.325C56.5504 47.325 56.0817 47.192 55.7017 46.926C55.3217 46.66 55.0367 46.3243 54.8467 45.919C54.6567 45.501 54.5617 45.0767 54.5617 44.646C54.5617 43.962 54.6947 43.3857 54.9607 42.917C55.2394 42.4483 55.6004 42.0557 56.0437 41.739C56.487 41.4223 56.9747 41.1563 57.5067 40.941C58.0387 40.713 58.5644 40.5103 59.0837 40.333V39.231C59.0837 39.041 59.0647 38.8763 59.0267 38.737C58.9887 38.585 58.9254 38.471 58.8367 38.395C58.748 38.3063 58.615 38.262 58.4377 38.262C58.2604 38.262 58.121 38.3 58.0197 38.376C57.931 38.452 57.8677 38.5597 57.8297 38.699C57.7917 38.8257 57.7664 38.9713 57.7537 39.136L57.6777 39.934L54.7897 39.82C54.853 38.5027 55.2014 37.5337 55.8347 36.913C56.4807 36.2797 57.4434 35.963 58.7227 35.963C59.8374 35.963 60.667 36.2733 61.2117 36.894C61.769 37.502 62.0477 38.2937 62.0477 39.269V44.399C62.0477 44.855 62.054 45.254 62.0667 45.596C62.092 45.938 62.1174 46.2357 62.1427 46.489C62.1807 46.7423 62.2124 46.9577 62.2377 47.135H59.4637C59.4257 46.8437 59.3814 46.527 59.3307 46.185C59.28 45.843 59.242 45.6403 59.2167 45.577C59.09 46.033 58.8494 46.4383 58.4947 46.793C58.1527 47.1477 57.6904 47.325 57.1077 47.325ZM58.2097 45.235C58.3364 45.235 58.4504 45.2097 58.5517 45.159C58.6657 45.1083 58.767 45.0387 58.8557 44.95C58.9444 44.8613 59.0204 44.7727 59.0837 44.684V41.682C58.8304 41.834 58.596 41.9923 58.3807 42.157C58.1654 42.309 57.9817 42.48 57.8297 42.67C57.6777 42.86 57.5574 43.069 57.4687 43.297C57.3927 43.5123 57.3547 43.7593 57.3547 44.038C57.3547 44.4053 57.4307 44.6967 57.5827 44.912C57.7347 45.1273 57.9437 45.235 58.2097 45.235ZM68.1741 47.135L71.0811 31.745H74.9571L77.8261 47.135H74.6911L74.1781 43.886H71.9171L71.3851 47.135H68.1741ZM72.2211 41.853H73.8551L73.0381 35.849L72.2211 41.853ZM79.361 47.135V36.153H82.458V47.135H79.361ZM79.893 34.937L81.09 31.118H84.244L81.85 34.937H79.893Z" fill="#F96918"/>
</svg>
